Coordinates
version=1
nRows=38
nColumns=38
inDegrees=no

Units are S.I. units (second, meters, Newtons, ...)
If the header above contains a line with 'inDegrees', this indicates whether rotational values are in degrees (yes) or radians (no).

endheader
time	pelvis_tilt	pelvis_list	pelvis_rotation	pelvis_tx	pelvis_ty	pelvis_tz	hip_flexion_r	hip_adduction_r	hip_rotation_r	knee_angle_r	ankle_angle_r	subtalar_angle_r	mtp_angle_r	hip_flexion_l	hip_adduction_l	hip_rotation_l	knee_angle_l	ankle_angle_l	subtalar_angle_l	mtp_angle_l	lumbar_extension	lumbar_bending	lumbar_rotation	arm_flex_r	arm_add_r	arm_rot_r	elbow_flex_r	pro_sup_r	wrist_flex_r	wrist_dev_r	arm_flex_l	arm_add_l	arm_rot_l	elbow_flex_l	pro_sup_l	wrist_flex_l	wrist_dev_l
1.0375	0.398119	0.0253056	-3.06394	-0.190899	0.580306	0.030827	1.69159	-0.404427	0.0313461	1.8976	0.517453	0	0	1.68064	-0.188172	0.0168875	1.91376	0.512609	0	0	-0.260018	0.0576633	-0.0130147	1.47648	-0.47157	0.93917	1.72522	1.16804	0	0	1.42434	-0.321757	0.941316	1.66027	1.33541	0	0
1.04748	0.400281	0.027164	-3.06424	-0.190262	0.576748	0.0306023	1.70229	-0.405864	0.0324564	1.90645	0.517429	0	0	1.6924	-0.190144	0.0200977	1.9231	0.512472	0	0	-0.260145	0.0595362	-0.0121912	1.48392	-0.472108	0.939536	1.72639	1.17085	0	0	1.43332	-0.320129	0.942705	1.66032	1.33938	0	0
1.05745	0.402277	0.0288536	-3.06435	-0.189662	0.573197	0.030387	1.71292	-0.407598	0.0337779	1.91534	0.517404	0	0	1.70393	-0.191778	0.0232083	1.93237	0.512335	0	0	-0.260363	0.0612465	-0.0116417	1.49089	-0.472719	0.940188	1.72781	1.17394	0	0	1.44224	-0.318578	0.944	1.6605	1.34349	0	0
1.06743	0.404108	0.0303529	-3.06429	-0.1891	0.569659	0.0301773	1.72346	-0.409542	0.035355	1.92425	0.517379	0	0	1.7152	-0.193068	0.0262085	1.94153	0.512197	0	0	-0.260669	0.0627591	-0.0113577	1.49729	-0.473374	0.94106	1.72944	1.17737	0	0	1.45105	-0.317131	0.945147	1.66078	1.34798	0	0
1.0774	0.405782	0.0316568	-3.0641	-0.188577	0.566143	0.0299687	1.7339	-0.411605	0.0372048	1.93316	0.517352	0	0	1.72619	-0.194013	0.0291053	1.95058	0.512059	0	0	-0.261048	0.0640568	-0.0113207	1.503	-0.474049	0.942088	1.73124	1.18118	0	0	1.45971	-0.315799	0.946091	1.66111	1.35306	0	0
1.08738	0.407303	0.0327849	-3.06382	-0.188094	0.562654	0.0297603	1.74417	-0.413693	0.0393035	1.94202	0.517325	0	0	1.73687	-0.194622	0.031935	1.9595	0.51192	0	0	-0.261481	0.0651452	-0.0114942	1.50794	-0.474722	0.943207	1.73316	1.18539	0	0	1.46815	-0.314583	0.94679	1.66146	1.35887	0	0
1.09736	0.408664	0.0337779	-3.06349	-0.187652	0.559201	0.0295491	1.7542	-0.415711	0.0415901	1.9508	0.517297	0	0	1.74723	-0.194926	0.0347565	1.96826	0.511781	0	0	-0.261953	0.066046	-0.0118244	1.51206	-0.475382	0.944363	1.73515	1.18998	0	0	1.47633	-0.313468	0.947213	1.66181	1.36543	0	0
1.10733	0.409846	0.0347001	-3.06314	-0.187255	0.555789	0.0293281	1.76388	-0.41756	0.0439662	1.95947	0.517268	0	0	1.75726	-0.194972	0.0376513	1.97688	0.511642	0	0	-0.262451	0.0667954	-0.0122417	1.51541	-0.476019	0.945515	1.73718	1.19492	0	0	1.48415	-0.31243	0.947352	1.66214	1.37263	0	0
1.11731	0.410815	0.035639	-3.06284	-0.186911	0.552424	0.0290892	1.77307	-0.419157	0.0462997	1.968	0.517239	0	0	1.76691	-0.194817	0.0407224	1.98536	0.511502	0	0	-0.262965	0.0674481	-0.0126709	1.51808	-0.476624	0.946655	1.7392	1.20015	0	0	1.49155	-0.311433	0.947216	1.66246	1.38027	0	0
1.12728	0.411534	0.0367018	-3.0626	-0.186627	0.549112	0.0288242	1.78161	-0.420432	0.0484294	1.97636	0.517208	0	0	1.77617	-0.194521	0.0440908	1.9937	0.511362	0	0	-0.263488	0.0680816	-0.0130371	1.52018	-0.477189	0.947804	1.7412	1.20561	0	0	1.49843	-0.310447	0.946836	1.66277	1.38812	0	0
1.13726	0.411959	0.0380093	-3.06247	-0.186411	0.545861	0.0285275	1.78933	-0.42134	0.0501751	1.98452	0.517176	0	0	1.78501	-0.194143	0.0478893	2.00191	0.511221	0	0	-0.26402	0.068795	-0.0132679	1.52183	-0.477702	0.949006	1.74314	1.21129	0	0	1.50473	-0.309447	0.946247	1.6631	1.39595	0	0
1.14724	0.412051	0.0396792	-3.06248	-0.186272	0.542677	0.0281939	1.79607	-0.421858	0.0513617	1.99248	0.517144	0	0	1.79343	-0.193736	0.0522424	2.01	0.511081	0	0	-0.264569	0.0696987	-0.0132975	1.52314	-0.478148	0.950315	1.74502	1.21714	0	0	1.51037	-0.308407	0.945488	1.66347	1.40359	0	0
1.15721	0.411786	0.0418023	-3.06262	-0.186214	0.539562	0.0278218	1.80174	-0.421991	0.0518571	2.00021	0.517111	0	0	1.80139	-0.193346	0.0572397	2.01797	0.51094	0	0	-0.26515	0.0708964	-0.013075	1.5242	-0.478506	0.951777	1.74685	1.22315	0	0	1.51529	-0.307312	0.944599	1.66392	1.4109	0	0
1.16719	0.411154	0.044427	-3.06292	-0.186235	0.536521	0.0274154	1.80628	-0.421775	0.0515979	2.00772	0.517077	0	0	1.80891	-0.193004	0.0629181	2.02581	0.510799	0	0	-0.265793	0.0724783	-0.0125658	1.5251	-0.478756	0.953423	1.74863	1.22929	0	0	1.51949	-0.30615	0.943617	1.66449	1.41784	0	0
1.17716	0.410172	0.0475486	-3.06336	-0.186326	0.533557	0.0269869	1.80975	-0.421275	0.0506066	2.01499	0.517042	0	0	1.81599	-0.192733	0.0692504	2.0335	0.510657	0	0	-0.266561	0.0745196	-0.0117479	1.5259	-0.478875	0.955266	1.75037	1.23557	0	0	1.52303	-0.304925	0.942577	1.66522	1.42442	0	0
1.18714	0.408885	0.051103	-3.06394	-0.18646	0.530674	0.0265548	1.81234	-0.420583	0.0490189	2.02205	0.517007	0	0	1.82267	-0.192541	0.0761276	2.04103	0.510516	0	0	-0.267542	0.0770704	-0.0106094	1.52665	-0.478839	0.957291	1.7521	1.24205	0	0	1.52604	-0.303648	0.941508	1.66615	1.43076	0	0
1.19712	0.40739	0.0549686	-3.06462	-0.186597	0.52787	0.0261437	1.81434	-0.419784	0.047049	2.02889	0.516971	0	0	1.82905	-0.1924	0.0833576	2.04834	0.510374	0	0	-0.268709	0.0800649	-0.00920346	1.5274	-0.478619	0.959441	1.75381	1.24886	0	0	1.52864	-0.30233	0.940452	1.66731	1.43704	0	0
1.20709	0.405831	0.0589717	-3.06536	-0.18672	0.525137	0.0257747	1.81609	-0.418947	0.0449505	2.03555	0.516935	0	0	1.8352	-0.192273	0.0907022	2.05536	0.510232	0	0	-0.269977	0.0833663	-0.00762811	1.52815	-0.478183	0.961629	1.75551	1.25618	0	0	1.53094	-0.300979	0.939454	1.66868	1.44348	0	0
1.21707	0.404372	0.0629061	-3.0661	-0.186814	0.522463	0.0254607	1.81794	-0.418129	0.0430028	2.04201	0.516899	0	0	1.84123	-0.192114	0.0978856	2.06198	0.510091	0	0	-0.271216	0.0867792	-0.00601469	1.52894	-0.477504	0.963738	1.7572	1.26408	0	0	1.53303	-0.299603	0.938578	1.67023	1.45018	0	0
1.22704	0.403179	0.0665706	-3.06681	-0.186868	0.519836	0.0252086	1.82023	-0.417366	0.0414621	2.04828	0.516863	0	0	1.84721	-0.191882	0.104638	2.0681	0.509949	0	0	-0.27228	0.0900892	-0.00449992	1.52975	-0.47657	0.965647	1.75885	1.2725	0	0	1.53498	-0.298202	0.937906	1.6719	1.4571	0	0
1.23702	0.402409	0.0697893	-3.06745	-0.186871	0.517245	0.0250202	1.82324	-0.416681	0.0405358	2.05432	0.516827	0	0	1.85321	-0.191553	0.110723	2.07358	0.509807	0	0	-0.273013	0.0930876	-0.0032095	1.53061	-0.475376	0.967241	1.76045	1.28125	0	0	1.53682	-0.296769	0.937517	1.67361	1.46408	0	0
1.247	0.40218	0.072436	-3.06798	-0.186816	0.514685	0.0248927	1.82714	-0.416085	0.0403514	2.06008	0.516791	0	0	1.85926	-0.191116	0.115969	2.07832	0.509665	0	0	-0.27329	0.0956074	-0.00225279	1.53149	-0.473922	0.968436	1.76196	1.29013	0	0	1.53856	-0.295298	0.937465	1.6753	1.47091	0	0
1.25697	0.402603	0.0744362	-3.06839	-0.186698	0.512148	0.0248204	1.83206	-0.41558	0.0409605	2.06547	0.516755	0	0	1.86543	-0.190571	0.120278	2.08224	0.509523	0	0	-0.272969	0.0975274	-0.00171386	1.5324	-0.472211	0.969154	1.76332	1.29903	0	0	1.54018	-0.293771	0.937767	1.67686	1.47752	0	0
1.26695	0.403738	0.0757688	-3.06868	-0.186516	0.509631	0.0247986	1.83801	-0.415177	0.04235	2.07043	0.516719	0	0	1.87175	-0.189928	0.12361	2.08535	0.509381	0	0	-0.27197	0.098795	-0.00162784	1.53334	-0.47026	0.969368	1.7645	1.30771	0	0	1.54164	-0.292168	0.938407	1.67822	1.4838	0	0
1.27692	0.405581	0.076472	-3.06886	-0.186269	0.507134	0.0248248	1.84495	-0.414891	0.0444375	2.07487	0.516683	0	0	1.87827	-0.189204	0.125993	2.08769	0.509239	0	0	-0.270282	0.0994391	-0.00197513	1.53429	-0.468094	0.969092	1.76547	1.316	0	0	1.54294	-0.290476	0.939329	1.67936	1.48974	0	0
1.2869	0.40808	0.0766335	-3.06895	-0.185959	0.504657	0.0248984	1.85273	-0.414743	0.0470852	2.07872	0.516647	0	0	1.885	-0.188422	0.12751	2.08935	0.509098	0	0	-0.267955	0.0995571	-0.00269409	1.53525	-0.465739	0.968372	1.76624	1.32375	0	0	1.54408	-0.288691	0.940445	1.68026	1.49537	0	0
1.29688	0.411153	0.0763737	-3.06897	-0.185591	0.502203	0.0250169	1.86118	-0.414756	0.0501144	2.08193	0.516612	0	0	1.89196	-0.187607	0.128291	2.09047	0.508956	0	0	-0.265065	0.0992788	-0.00371151	1.53623	-0.46322	0.967259	1.76681	1.33084	0	0	1.54507	-0.286819	0.941654	1.68092	1.50071	0	0
1.30685	0.414701	0.0758238	-3.06895	-0.185171	0.499775	0.025176	1.87011	-0.414949	0.0533371	2.08449	0.516576	0	0	1.89914	-0.186795	0.128493	2.09115	0.508815	0	0	-0.261704	0.0987411	-0.00495355	1.5372	-0.460556	0.965813	1.76718	1.33718	0	0	1.54592	-0.284877	0.942854	1.68136	1.50576	0	0
1.31683	0.418604	0.0751118	-3.06891	-0.184707	0.497376	0.0253678	1.87932	-0.415335	0.0565762	2.08643	0.516541	0	0	1.90651	-0.18603	0.12828	2.09151	0.508675	0	0	-0.25798	0.0980771	-0.00634744	1.53818	-0.457764	0.964118	1.76735	1.34273	0	0	1.54667	-0.2829	0.943947	1.68162	1.51049	0	0
1.3268	0.422724	0.0743529	-3.06888	-0.184214	0.495006	0.025582	1.8886	-0.415919	0.0596744	2.08784	0.516505	0	0	1.914	-0.185362	0.12781	2.09164	0.508534	0	0	-0.25403	0.0974101	-0.00781938	1.53915	-0.454866	0.962267	1.76733	1.34747	0	0	1.54734	-0.280933	0.944847	1.68177	1.51483	0	0
1.33678	0.426911	0.073641	-3.06889	-0.183706	0.492669	0.0258093	1.89775	-0.416703	0.0625094	2.08881	0.516469	0	0	1.9215	-0.18485	0.127219	2.09162	0.508394	0	0	-0.250012	0.0968449	-0.00929529	1.54011	-0.451898	0.960363	1.76716	1.35141	0	0	1.54794	-0.279028	0.94548	1.68188	1.51872	0	0
1.34675	0.431053	0.0730338	-3.06894	-0.183198	0.490369	0.026042	1.90662	-0.417681	0.0650108	2.08944	0.516431	0	0	1.92893	-0.184533	0.126601	2.09151	0.508255	0	0	-0.246039	0.0964431	-0.01072	1.54107	-0.448902	0.958491	1.76687	1.35457	0	0	1.5485	-0.277227	0.945802	1.68202	1.52212	0	0
1.35673	0.435081	0.0725555	-3.06906	-0.182702	0.48811	0.0262759	1.91514	-0.418847	0.0671618	2.0898	0.516391	0	0	1.93623	-0.184434	0.126007	2.09137	0.508116	0	0	-0.242181	0.0962261	-0.0120561	1.54201	-0.445931	0.956718	1.7665	1.35697	0	0	1.54903	-0.275556	0.945803	1.68222	1.52502	0	0
1.36671	0.439029	0.0721912	-3.06925	-0.182221	0.485889	0.026511	1.92341	-0.420195	0.0690077	2.08998	0.516348	0	0	1.94346	-0.184532	0.125437	2.09122	0.507977	0	0	-0.238385	0.0961677	-0.0132969	1.54295	-0.443024	0.955035	1.76603	1.35866	0	0	1.54954	-0.274002	0.945508	1.68242	1.52746	0	0
1.37668	0.442941	0.0719116	-3.0695	-0.181759	0.483704	0.026748	1.93151	-0.421719	0.0706172	2.09004	0.516301	0	0	1.95066	-0.184792	0.124872	2.09109	0.507839	0	0	-0.234593	0.0962276	-0.0144459	1.54387	-0.440223	0.95343	1.76544	1.35968	0	0	1.55004	-0.272544	0.944967	1.68255	1.5295	0	0
1.38666	0.446858	0.0716823	-3.06979	-0.181317	0.481553	0.0269881	1.93955	-0.423404	0.0720623	2.09004	0.51625	0	0	1.95786	-0.185169	0.124293	2.09098	0.507701	0	0	-0.230748	0.0963623	-0.0155069	1.54479	-0.437567	0.951896	1.76473	1.36014	0	0	1.55054	-0.271154	0.944245	1.68252	1.53122	0	0
1.39663	0.450791	0.071473	-3.07014	-0.180898	0.479438	0.027233	1.94756	-0.42522	0.0734019	2.09	0.516192	0	0	1.96507	-0.185634	0.123696	2.09092	0.507564	0	0	-0.226834	0.0965374	-0.0164741	1.54569	-0.435092	0.950456	1.76389	1.36018	0	0	1.55104	-0.269809	0.943411	1.68226	1.53271	0	0
1.40661	0.454718	0.0712625	-3.07053	-0.180505	0.477365	0.0274841	1.95551	-0.427123	0.0746777	2.08996	0.516127	0	0	1.97223	-0.186168	0.123094	2.09089	0.507428	0	0	-0.222878	0.0967306	-0.0173315	1.54658	-0.432835	0.949172	1.76298	1.35996	0	0	1.55154	-0.268504	0.942528	1.68176	1.53405	0	0
